<?xml version="1.0" encoding="UTF-8"?>
<svg version="1.1" xmlns="http://www.w3.org/2000/svg" width="512" height="512">
<path d="M0 0 C168.96 0 337.92 0 512 0 C512 168.96 512 337.92 512 512 C343.04 512 174.08 512 0 512 C0 343.04 0 174.08 0 0 Z " fill="#32006A" transform="translate(0,0)"/>
<path d="M0 0 C147.84 0 295.68 0 448 0 C448 21.12 448 42.24 448 64 C321.28 64 194.56 64 64 64 C64 106.24 64 148.48 64 192 C169.6 192 275.2 192 384 192 C384 213.12 384 234.24 384 256 C278.4 256 172.8 256 64 256 C64 298.24 64 340.48 64 384 C190.72 384 317.44 384 448 384 C448 405.12 448 426.24 448 448 C300.16 448 152.32 448 0 448 C0 300.16 0 152.32 0 0 Z " fill="#FFFFFF" transform="translate(32,32)"/>
<path d="M0 0 C168.96 0 337.92 0 512 0 C512 168.96 512 337.92 512 512 C343.04 512 174.08 512 0 512 C0 343.04 0 174.08 0 0 Z M32 32 C32 179.84 32 327.68 32 480 C179.84 480 327.68 480 480 480 C480 332.16 480 184.32 480 32 C332.16 32 184.32 32 32 32 Z " fill="#170009" transform="translate(0,0)"/>
</svg>
